<svg width="48" height="48" viewBox="0 0 48 48" fill="none" xmlns="http://www.w3.org/2000/svg">
<path d="M20.0607 17.9393C19.4749 17.3536 18.5251 17.3536 17.9393 17.9393C17.3536 18.5251 17.3536 19.4749 17.9393 20.0606L21.8787 24L17.9394 27.9394C17.3536 28.525 17.3536 29.4748 17.9394 30.0606C18.5252 30.6464 19.4749 30.6464 20.0607 30.0606L24.0001 26.1214L27.9393 30.0606C28.5251 30.6464 29.4749 30.6464 30.0607 30.0606C30.6465 29.4748 30.6465 28.525 30.0607 27.9392L26.1213 24L30.0607 20.0606C30.6465 19.4749 30.6465 18.5252 30.0607 17.9394C29.4749 17.3536 28.5251 17.3536 27.9393 17.9394L24.0001 21.8786L20.0607 17.9393Z" fill="white"/>
<path fill-rule="evenodd" clip-rule="evenodd" d="M24 2.5C12.1259 2.5 2.5 12.1259 2.5 24C2.5 35.8742 12.1259 45.5 24 45.5C35.8742 45.5 45.5 35.8742 45.5 24C45.5 12.1259 35.8742 2.5 24 2.5ZM5.5 24C5.5 13.7827 13.7827 5.5 24 5.5C34.2172 5.5 42.5 13.7827 42.5 24C42.5 34.2172 34.2172 42.5 24 42.5C13.7827 42.5 5.5 34.2172 5.5 24Z" fill="white"/>
</svg>
