<svg width="32" height="32" viewBox="0 0 32 32" fill="none" xmlns="http://www.w3.org/2000/svg">
<path d="M20 17C20.5523 17 21 16.5523 21 16C21 15.4477 20.5523 15 20 15H12C11.4477 15 11 15.4477 11 16C11 16.5523 11.4477 17 12 17H20Z" fill="black"/>
<path fill-rule="evenodd" clip-rule="evenodd" d="M16.0001 1.66663C8.084 1.66663 1.66675 8.08388 1.66675 16C1.66675 23.9161 8.084 30.3333 16.0001 30.3333C23.9162 30.3333 30.3334 23.9161 30.3334 16C30.3334 8.08388 23.9162 1.66663 16.0001 1.66663ZM3.66675 16C3.66675 9.18845 9.18857 3.66663 16.0001 3.66663C22.8115 3.66663 28.3334 9.18845 28.3334 16C28.3334 22.8114 22.8115 28.3333 16.0001 28.3333C9.18857 28.3333 3.66675 22.8114 3.66675 16Z" fill="black"/>
</svg>
