<svg width="32" height="32" viewBox="0 0 32 32" fill="none" xmlns="http://www.w3.org/2000/svg">
<g clip-path="url(#clip0_3_597)">
<path fill-rule="evenodd" clip-rule="evenodd" d="M13.3333 0.333374C12.9797 0.333374 12.6406 0.473854 12.3905 0.723894L4.39052 8.72389C4.14048 8.97395 4 9.31308 4 9.66671V25.6667C4 27.8759 5.79087 29.6667 8 29.6667H9.33333C10.0697 29.6667 10.6667 29.0698 10.6667 28.3334C10.6667 27.597 10.0697 27 9.33333 27H8C7.26363 27 6.66667 26.4031 6.66667 25.6667V11H13.3333C14.0697 11 14.6667 10.4031 14.6667 9.66671V3.00004H24C24.7364 3.00004 25.3333 3.597 25.3333 4.33337V8.33337C25.3333 9.06975 25.9303 9.66671 26.6667 9.66671C27.4031 9.66671 28 9.06975 28 8.33337V4.33337C28 2.12424 26.2092 0.333374 24 0.333374H13.3333ZM12 8.33337H8.55228L12 4.88565V8.33337ZM29.4951 13.2762C27.9329 11.7141 25.4004 11.7141 23.8383 13.2762L21.5985 15.5159L15.0572 22.0572C14.8863 22.2282 14.7651 22.4422 14.7065 22.6767L13.3732 28.01C13.2595 28.4643 13.3927 28.945 13.7239 29.2762C14.0551 29.6074 14.5357 29.7404 14.99 29.6268L20.3233 28.2935C20.5579 28.235 20.7719 28.1138 20.9428 27.9428L27.4075 21.4782L29.7239 19.1618C31.286 17.5996 31.286 15.0671 29.7239 13.505L29.4951 13.2762ZM24.4091 16.4766L25.7239 15.1618C26.2445 14.6411 27.0888 14.6411 27.6095 15.1618L27.8383 15.3906C28.3589 15.9112 28.3589 16.7555 27.8383 17.2762L26.4829 18.6315L24.4091 16.4766ZM22.5231 18.3626L24.5969 20.5175L19.3184 25.796L16.4992 26.5008L17.204 23.6816L22.5231 18.3626Z" fill="black"/>
</g>
<defs>
<clipPath id="clip0_3_597">
<rect width="27" height="30" fill="white" transform="translate(4)"/>
</clipPath>
</defs>
</svg>
