<svg width="32" height="27" viewBox="0 0 32 27" fill="none" xmlns="http://www.w3.org/2000/svg">
<path d="M31.3136 16.6683C31.305 15.9734 30.7437 15.3324 30.0574 15.2356L24.9223 14.463V12.8418C24.9223 12.1249 24.3424 11.5408 23.627 11.534L15.6102 10.8489L15.5864 10.8478C14.8652 10.8478 14.2785 11.4345 14.2785 12.1557V12.8616L9.5062 12.1435L8.10929 3.09057C8.00686 2.42689 7.4407 1.79447 6.79228 1.61952L0.878218 0.0242842C0.506664 -0.0761075 0.124391 0.143917 0.0242088 0.515419C-0.0759737 0.88692 0.143895 1.26919 0.515344 1.36943L6.42946 2.96477C6.54684 2.9964 6.71385 3.18301 6.73241 3.30312L8.14161 12.436C7.9483 12.6422 7.83112 12.9231 7.82867 13.2431L7.14313 22.9773L7.14245 22.9969C7.14245 23.7181 7.72916 24.3048 8.45036 24.3048H9.01449L8.93245 23.9614C8.84205 23.5831 8.79624 23.1967 8.79624 22.8127C8.79624 20.0871 11.0136 17.8697 13.7393 17.8697C16.4649 17.8697 18.6823 20.0871 18.6823 22.8127C18.6823 23.1967 18.6365 23.5831 18.5461 23.9614L18.4641 24.3048H22.166L22.1387 24.0012C22.1326 23.9328 22.1284 23.8728 22.1259 23.8168C22.1227 23.7523 22.121 23.689 22.121 23.6285C22.121 21.3527 23.9725 19.5012 26.2483 19.5012C28.524 19.5012 30.3755 21.3526 30.3755 23.6285C30.3755 23.7065 30.3727 23.7887 30.3665 23.8873L30.341 24.2984L30.732 24.1693C31.345 23.967 31.9999 23.5527 31.9999 22.997V22.9819L31.3136 16.6683Z" fill="black"/>
<path d="M13.7394 19.5653C11.9487 19.5653 10.4919 21.0221 10.4919 22.8127C10.4919 24.6033 11.9488 26.0601 13.7394 26.0601C15.5299 26.0601 16.9868 24.6033 16.9868 22.8127C16.9868 21.0221 15.5299 19.5653 13.7394 19.5653ZM13.7394 24.3883C12.8706 24.3883 12.1638 23.6815 12.1638 22.8128C12.1638 21.9441 12.8707 21.2372 13.7394 21.2372C14.6081 21.2372 15.3149 21.9441 15.3149 22.8128C15.3149 23.6815 14.6081 24.3883 13.7394 24.3883Z" fill="black"/>
<path d="M26.2481 20.9399C24.7656 20.9399 23.5596 22.1461 23.5596 23.6285C23.5596 25.111 24.7657 26.3171 26.2481 26.3171C27.7306 26.3171 28.9367 25.1109 28.9367 23.6285C28.9367 22.146 27.7306 20.9399 26.2481 20.9399ZM26.2481 24.9238C25.5339 24.9238 24.9528 24.3426 24.9528 23.6285C24.9528 22.9143 25.5339 22.3332 26.2481 22.3332C26.9624 22.3332 27.5434 22.9143 27.5434 23.6285C27.5434 24.3427 26.9624 24.9238 26.2481 24.9238Z" fill="black"/>
</svg>
