<svg width="32" height="32" viewBox="0 0 32 32" fill="none" xmlns="http://www.w3.org/2000/svg">
<g clip-path="url(#clip0_3_622)">
<path fill-rule="evenodd" clip-rule="evenodd" d="M11 6.8572C11 6.01606 11.7168 5.33339 12.6 5.33339C13.4832 5.33339 14.2 6.01606 14.2 6.8572C14.2 7.69834 13.4832 8.38101 12.6 8.38101C11.7168 8.38101 11 7.69834 11 6.8572ZM28.8 26.6667C28.8 27.5079 28.0832 28.1905 27.2 28.1905H25.6V22.0953C25.6 20.4115 24.168 19.0477 22.4 19.0477H9.59998C7.83198 19.0477 6.40002 20.4115 6.40002 22.0953V28.1905H4.79999C3.91679 28.1905 3.20001 27.5079 3.20001 26.6667V11.4957C3.20001 11.293 3.28479 11.0995 3.43359 10.9578L6.40002 8.13264V9.90482C6.40002 11.5886 7.83198 12.9524 9.59998 12.9524H22.4C24.168 12.9524 25.6 11.5886 25.6 9.90482V3.80958H27.2C28.0832 3.80958 28.8 4.49225 28.8 5.33339V26.6667ZM22.4 28.1905H9.59998V23.6191C9.59998 22.778 10.3168 22.0953 11.2 22.0953H20.8C21.6832 22.0953 22.4 22.778 22.4 23.6191V28.1905ZM9.59998 5.08502L10.9392 3.80958H22.4V8.38101C22.4 9.22215 21.6832 9.90482 20.8 9.90482H11.2C10.3168 9.90482 9.59998 9.22215 9.59998 8.38101V5.08502ZM28.8 0.761963H10.2624C9.83842 0.761963 9.43198 0.921962 9.13119 1.20844L0.468797 9.45835C0.167996 9.74482 0 10.1319 0 10.5357V28.1905C0 29.8743 1.43201 31.2382 3.20001 31.2382H28.8C30.568 31.2382 32 29.8743 32 28.1905V3.80958C32 2.12577 30.568 0.761963 28.8 0.761963Z" fill="black"/>
</g>
<defs>
<clipPath id="clip0_3_622">
<rect width="32" height="32" fill="white"/>
</clipPath>
</defs>
</svg>
