<svg width="32" height="32" viewBox="0 0 32 32" fill="none" xmlns="http://www.w3.org/2000/svg">
<path d="M11.9361 10.208H18.9121C19.2641 10.208 19.5521 9.92002 19.5521 9.56802V8.28802C19.5521 7.23202 18.6881 6.40002 17.6641 6.40002H13.2161C12.1601 6.40002 11.3281 7.26402 11.3281 8.28802V9.56802C11.2961 9.92002 11.5841 10.208 11.9361 10.208Z" fill="black"/>
<path d="M22.4001 7.96802H21.7601C21.5681 7.96802 21.4401 8.09602 21.4401 8.28802V9.56802C21.4401 10.976 20.2881 12.096 18.9121 12.096H11.9361C10.5281 12.096 9.40806 10.944 9.40806 9.56802V8.28802C9.40806 8.09602 9.28006 7.96802 9.08806 7.96802H8.44806C7.39206 7.96802 6.56006 8.83202 6.56006 9.85602V22.848C6.56006 23.904 7.42406 24.736 8.44806 24.736H14.8481C15.7441 24.736 15.8401 24 15.8401 23.744V16.896C15.8401 16.16 16.2561 16 16.4801 16H23.3921C24.1601 16 24.2881 15.328 24.2881 15.104V9.92002C24.3201 8.83202 23.4561 7.96802 22.4001 7.96802Z" fill="black"/>
<path d="M25.088 19.328H18.112C17.92 19.328 17.76 19.168 17.76 18.976V18.272C17.76 18.08 17.92 17.92 18.112 17.92H25.088C25.28 17.92 25.44 18.08 25.44 18.272V18.976C25.44 19.168 25.28 19.328 25.088 19.328ZM25.088 22.464H18.112C17.92 22.464 17.76 22.304 17.76 22.112V21.408C17.76 21.216 17.92 21.056 18.112 21.056H25.088C25.28 21.056 25.44 21.216 25.44 21.408V22.112C25.44 22.304 25.28 22.464 25.088 22.464ZM25.088 25.6H18.112C17.92 25.6 17.76 25.44 17.76 25.248V24.544C17.76 24.352 17.92 24.192 18.112 24.192H25.088C25.28 24.192 25.44 24.352 25.44 24.544V25.248C25.44 25.44 25.28 25.6 25.088 25.6Z" fill="black"/>
</svg>
