<svg width="32" height="32" viewBox="0 0 32 32" fill="none" xmlns="http://www.w3.org/2000/svg">
<path d="M13.3736 11.9595C12.9831 11.569 12.3499 11.569 11.9594 11.9595C11.5689 12.35 11.5689 12.9832 11.9594 13.3737L14.5856 16L11.9594 18.6262C11.5689 19.0166 11.5689 19.6498 11.9594 20.0404C12.3499 20.4309 12.9831 20.4309 13.3736 20.0404L15.9999 17.4142L18.626 20.0404C19.0165 20.4309 19.6497 20.4309 20.0403 20.0404C20.4308 19.6498 20.4308 19.0166 20.0403 18.6261L17.414 16L20.0403 13.3737C20.4308 12.9832 20.4308 12.3501 20.0403 11.9596C19.6497 11.569 19.0165 11.569 18.626 11.9596L15.9999 14.5857L13.3736 11.9595Z" fill="black"/>
<path fill-rule="evenodd" clip-rule="evenodd" d="M15.9998 1.66663C8.08376 1.66663 1.6665 8.08388 1.6665 16C1.6665 23.9161 8.08376 30.3333 15.9998 30.3333C23.916 30.3333 30.3332 23.9161 30.3332 16C30.3332 8.08388 23.916 1.66663 15.9998 1.66663ZM3.6665 16C3.6665 9.18845 9.18833 3.66663 15.9998 3.66663C22.8113 3.66663 28.3332 9.18845 28.3332 16C28.3332 22.8114 22.8113 28.3333 15.9998 28.3333C9.18833 28.3333 3.6665 22.8114 3.6665 16Z" fill="black"/>
</svg>
